<svg xmlns="http://www.w3.org/2000/svg" xmlns:xlink="http://www.w3.org/1999/xlink" version="1.1" width="1500pt" height="750pt" viewBox="0 0 1500 750">
<defs>
<clipPath id="clip_0">
<path transform="matrix(1,0,0,-1,0,750)" d="M0 750H1500V0H0Z"/>
</clipPath>
</defs>
<g>
<path transform="matrix(1,0,0,-1,393.3129,125.69818)" d="M0 0V-396.149H-96.191V-253.781H-192.383V-396.149H-288.574V0H-192.383V-142.368H-96.191V0Z" fill="#303030"/>
<g clip-path="url(#clip_0)">
<path transform="matrix(1,0,0,-1,1197.1229,410.562)" d="M0 0C-47.84 0-86.726 38.885-86.726 86.725-86.726 134.693-47.84 173.451 0 173.451 47.968 173.451 86.854 134.693 86.854 86.725 86.854 38.885 47.968 0 0 0M0 284.864C-109.367 284.864-198.01 196.092-198.01 86.725-198.01-22.641-109.367-111.285 0-111.285 109.495-111.285 198.138-22.641 198.138 86.725 198.138 196.092 109.495 284.864 0 284.864" fill="#303030"/>
<path transform="matrix(1,0,0,-1,148.7437,565.7212)" d="M0 0V13.942H-44.005V-57.817H0V-43.874H-26.479V-28.013H-3.07V-14.582H-26.479V0Z" fill="#303030"/>
<path transform="matrix(1,0,0,-1,216.0264,587.978)" d="M0 0 22.766 36.199H2.942L-9.722 14.582-24.177 36.199H-44.514L-20.98 .895-44.002-35.56H-24.177L-11.258-13.559 3.326-35.56H23.662Z" fill="#303030"/>
<path transform="matrix(1,0,0,-1,298.274,581.4543)" d="M0 0C-1.664-1.663-4.222-2.43-7.548-2.43H-17.013V15.605H-7.548C-4.222 15.605-1.664 14.838 0 13.303 1.533 11.64 2.43 9.465 2.43 6.651 2.43 3.709 1.533 1.535 0 0M17.266 18.547C15.221 22.001 12.279 24.815 8.313 26.734 4.35 28.781-.512 29.675-6.14 29.675H-34.536V-42.084H-17.013V-16.373H-6.14C-.256-16.373 4.606-15.222 8.569-13.175 12.535-11.001 15.477-8.315 17.398-4.861 19.315-1.408 20.211 2.43 20.211 6.651 20.211 11.128 19.187 15.094 17.266 18.547" fill="#303030"/>
<path transform="matrix(1,0,0,-1,386.7892,565.7212)" d="M0 0V13.942H-44.002V-57.817H0V-43.874H-26.479V-28.013H-3.07V-14.582H-26.479V0Z" fill="#303030"/>
<path transform="matrix(1,0,0,-1,448.9565,581.7104)" d="M0 0C-1.536-1.535-3.966-2.302-7.164-2.302H-18.038V15.478H-7.164C-3.966 15.478-1.536 14.71 0 13.047 1.661 11.513 2.43 9.337 2.43 6.652 2.43 3.837 1.661 1.535 0 0M4.222-13.431C9.465-11.896 13.432-9.21 16.117-5.372 18.931-1.663 20.211 2.558 20.211 7.419 20.211 11.64 19.187 15.478 17.27 18.931 15.221 22.257 12.279 25.071 8.313 26.99 4.347 29.037-.512 29.931-6.14 29.931H-35.56V-41.828H-18.038V-14.71H-13.816L1.024-41.828H20.848Z" fill="#303030"/>
<path transform="matrix(1,0,0,-1,0,750)" d="M495.388 126.462H512.786V198.22101H495.388Z" fill="#303030"/>
<path transform="matrix(1,0,0,-1,584.7991,565.7212)" d="M0 0V13.942H-44.002V-57.817H0V-43.874H-26.604V-28.013H-3.07V-14.582H-26.604V0Z" fill="#303030"/>
<path transform="matrix(1,0,0,-1,658.0965,551.7791)" d="M0 0V-44.514L-29.293 0H-46.69V-71.759H-29.293V-27.501L0-71.759H17.523V0Z" fill="#303030"/>
<path transform="matrix(1,0,0,-1,745.4593,605.8863)" d="M0 0C-2.686-1.535-5.627-2.302-8.953-2.302-14.453-2.302-18.803-.383-22.129 3.326-25.455 7.035-27.116 12.024-27.116 18.292-27.116 24.559-25.455 29.676-22.129 33.385-18.803 37.095-14.453 39.013-8.953 39.013-5.627 39.013-2.686 38.246 0 36.711 2.558 35.048 4.606 32.746 6.012 29.804H25.327C23.281 37.607 19.187 43.746 13.047 48.224 7.036 52.7-.256 55.003-8.825 55.003-15.733 55.003-22.001 53.468-27.5 50.27-33 47.2-37.222 42.852-40.292 37.351-43.361 31.722-44.898 25.455-44.898 18.292-44.898 11.256-43.361 4.989-40.292-.639-37.222-6.14-33-10.361-27.5-13.559-22.001-16.629-15.733-18.163-8.825-18.163-.256-18.163 7.036-15.989 13.047-11.512 19.187-7.035 23.281-.895 25.327 6.908H6.012C4.606 3.837 2.558 1.535 0 0" fill="#303030"/>
<path transform="matrix(1,0,0,-1,840.6263,565.7212)" d="M0 0V13.942H-43.873V-57.817H0V-43.874H-26.476V-28.013H-3.07V-14.582H-26.476V0Z" fill="#303030"/>
<path transform="matrix(1,0,0,-1,916.2252,591.688)" d="M0 0C-2.049 2.814-4.606 4.861-7.42 6.268-10.362 7.675-14.072 9.21-18.803 10.745-23.409 12.28-26.863 13.687-29.037 14.966-31.213 16.245-32.234 18.036-32.234 20.467-32.234 22.513-31.594 24.176-30.317 25.327-29.037 26.35-27.375 26.99-25.199 26.99-22.769 26.99-20.723 26.35-19.187 24.943-17.654 23.664-16.757 21.873-16.629 19.443H2.302C1.917 26.223-.64 31.467-5.499 35.304-10.362 39.142-16.629 40.932-24.562 40.932-32.362 40.932-38.63 39.142-43.492 35.304-48.352 31.467-50.781 26.223-50.781 19.571-50.781 15.094-49.76 11.384-47.583 8.699-45.538 5.884-42.98 3.71-40.039 2.303-37.097 .895-33.387-.511-28.652-2.046-25.455-2.942-23.025-3.837-21.236-4.605-19.571-5.244-18.038-6.268-16.885-7.418-15.733-8.57-15.093-10.105-15.093-11.768-15.093-13.942-15.861-15.605-17.27-16.757-18.803-17.907-20.852-18.547-23.409-18.547-25.967-18.547-28.015-17.907-29.549-16.501-31.213-15.094-32.106-13.047-32.362-10.361H-51.037C-50.909-15.094-49.504-19.059-47.071-22.512-44.514-25.838-41.188-28.268-37.097-30.059-32.875-31.722-28.271-32.618-22.897-32.618-17.526-32.618-12.919-31.594-8.953-29.548-4.99-27.629-1.921-24.943 .128-21.617 2.174-18.292 3.198-14.582 3.198-10.488 3.198-6.14 2.174-2.686 0 0" fill="#303030"/>
<path transform="matrix(1,0,0,-1,1012.5445,582.9892)" d="M0 0V-12.919H22.257C20.848-17.013 18.675-20.211 15.733-22.385 12.791-24.56 9.081-25.583 4.859-25.583-1.408-25.583-6.396-23.793-9.978-20.083-13.56-16.373-15.352-11.129-15.352-4.605-15.352 1.662-13.688 6.651-10.234 10.361-6.78 14.07-2.305 15.861 3.323 15.861 6.652 15.861 9.465 15.221 11.895 14.07 14.325 12.791 16.245 10.872 17.523 8.57H36.838C34.92 15.861 30.954 21.617 25.07 25.838 19.187 29.931 12.023 32.106 3.323 32.106-3.71 32.106-9.978 30.571-15.477 27.373-21.108 24.303-25.327 19.954-28.524 14.454-31.597 8.825-33.131 2.558-33.131-4.605-33.131-11.641-31.597-17.908-28.524-23.536-25.327-29.037-21.108-33.258-15.477-36.456-9.978-39.526-3.582-41.061 3.454-41.061 9.465-41.061 14.837-39.91 19.699-37.607 24.43-35.304 28.396-32.234 31.466-28.525 34.536-24.688 36.71-20.723 38.118-16.373V0Z" fill="#303030"/>
<path transform="matrix(1,0,0,-1,1111.1654,581.7104)" d="M0 0C-1.665-1.535-4.094-2.302-7.292-2.302H-18.163V15.478H-7.292C-4.094 15.478-1.665 14.71 0 13.047 1.533 11.513 2.302 9.337 2.302 6.652 2.302 3.837 1.533 1.535 0 0M4.222-13.431C9.465-11.896 13.428-9.21 16.117-5.372 18.803-1.663 20.211 2.558 20.211 7.419 20.211 11.64 19.187 15.478 17.138 18.931 15.221 22.257 12.279 25.071 8.185 26.99 4.222 29.037-.64 29.931-6.268 29.931H-35.56V-41.828H-18.163V-14.71H-13.944L1.024-41.828H20.72Z" fill="#303030"/>
<path transform="matrix(1,0,0,-1,1205.1799,602.5604)" d="M0 0C-3.451-3.837-8.057-5.756-13.684-5.756-19.571-5.756-24.174-3.837-27.628-.128-31.082 3.709-32.744 8.826-32.744 15.094-32.744 21.489-31.082 26.606-27.628 30.315-24.174 34.153-19.571 35.944-13.684 35.944-8.057 35.944-3.451 34.153 0 30.315 3.454 26.478 5.246 21.489 5.246 15.094 5.246 8.826 3.454 3.837 0 0M18.166 34.025C14.84 39.653 10.49 44.002 4.862 47.2-.765 50.27-6.905 51.805-13.684 51.805-20.464 51.805-26.604 50.27-32.231 47.2-37.862 44.002-42.337 39.653-45.663 34.025-48.989 28.396-50.653 22.129-50.653 15.094-50.653 8.059-48.989 1.791-45.663-3.837-42.337-9.465-37.862-13.815-32.231-17.013-26.604-20.083-20.464-21.745-13.684-21.745-6.905-21.745-.765-20.083 4.734-17.013 10.362-13.815 14.84-9.465 18.038-3.837 21.364 1.791 23.025 8.059 23.025 15.094 23.025 22.129 21.364 28.396 18.166 34.025" fill="#303030"/>
<path transform="matrix(1,0,0,-1,1295.4877,551.7791)" d="M0 0V-42.979C0-47.199-1.021-50.525-3.326-52.828-5.499-55.131-8.569-56.282-12.663-56.282-16.757-56.282-19.827-55.131-22.001-52.828-24.046-50.525-25.199-47.199-25.199-42.979V0H-42.593V-42.851C-42.593-49.246-41.316-54.619-38.758-59.096-36.197-63.573-32.619-66.899-28.14-69.201-23.662-71.375-18.675-72.527-12.919-72.527-7.292-72.527-2.173-71.375 2.43-69.073 7.036-66.899 10.746-63.573 13.432-59.096 16.117-54.619 17.526-49.246 17.526-42.851V0Z" fill="#303030"/>
<path transform="matrix(1,0,0,-1,1374.9215,581.4543)" d="M0 0C-1.533-1.663-4.094-2.43-7.417-2.43H-16.885V15.605H-7.417C-4.094 15.605-1.533 14.838 0 13.303 1.665 11.64 2.558 9.465 2.558 6.651 2.558 3.709 1.665 1.535 0 0M17.398 18.547C15.349 22.001 12.407 24.815 8.444 26.734 4.478 28.781-.384 29.675-6.14 29.675H-34.408V-42.084H-16.885V-16.373H-6.14C-.256-16.373 4.734-15.222 8.697-13.175 12.663-11.001 15.48-8.315 17.398-4.861 19.315-1.408 20.339 2.43 20.339 6.651 20.339 11.128 19.315 15.094 17.398 18.547" fill="#303030"/>
<path transform="matrix(1,0,0,-1,815.535,223.29773)" d="M0 0H21.364C30.076 0 38.52-1.671 46.308-4.983 53.976-8.325 60.899-12.92 66.777-18.798 72.655-24.676 77.28-31.598 80.592-39.266 83.904-47.084 85.575-55.528 85.575-64.211 85.575-89.931 70.357-113.085 46.815-123.17 38.759-126.632 30.196-128.422 21.364-128.422H0ZM0-298.527V-222.053L71.36-298.557H186.75L91.99-203.762C139.82-175.625 171.925-123.677 171.925-64.211 171.925 25.064 99.389 97.6 10.115 97.6H-86.321V-298.557" fill="#303030"/>
<path transform="matrix(1,0,0,-1,417.0336,125.694278)" d="M0 0V-111.306H288.46V0Z" fill="#51b8e5"/>
<path transform="matrix(1,0,0,-1,705.4933,364.23)" d="M0 0V96.149 96.153H-288.46V96.149 0-15.156H0Z" fill="#f9a280"/>
<path transform="matrix(1,0,0,-1,705.4933,514.1906)" d="M0 0V96.153 103.728L-288.46 103.727V96.153 0-7.578H0Z" fill="#29b7b0"/>
</g>
</g>
</svg>
